<?xml version="1.0" encoding="utf-8"?>
<!-- Generator: Adobe Illustrator 19.2.1, SVG Export Plug-In . SVG Version: 6.00 Build 0)  -->
<svg version="1.1" id="layer" xmlns="http://www.w3.org/2000/svg" xmlns:xlink="http://www.w3.org/1999/xlink" x="0px" y="0px"
	 viewBox="0 0 652 652" style="enable-background:new 0 0 652 652;" xml:space="preserve">
<style type="text/css">
	.st0{fill:#F05752;}
	.st1{fill:#D73837;}
	.st2{fill:#383D3D;}
</style>
<polygon class="st0" points="152.3,262 107.3,380 152.3,368 197.2,380 "/>
<path class="st1" d="M452.7,301.8h0.7c14.7,0,25.2,7.6,31.7,22.7l0.2,0.9h-16c-4.4-5.7-9.5-8.6-15.3-8.6h-1.5
	c-7.3,0-13.1,3.8-17.3,11.3c-2.4,4.4-3.6,8.5-3.6,12.1c0,8.6,3.4,15.5,10.2,20.8c3.4,2.4,6.9,3.5,10.5,3.5h1.9
	c5.7,0,10.5-2.7,14.4-8.1h15.9l0.1,0.2h0.2c-3.4,9-9.1,15.6-17.3,19.7c-4.8,2-9.5,3-13.9,3h-1.1c-8.7,0-16.4-3.2-23.2-9.5
	c-7.7-9.2-11.6-19.1-11.6-29.4c0-10.1,3.7-19.4,10.9-28C435.1,305.4,443.2,301.8,452.7,301.8 M491.9,304.6l-0.4,0.4v74l0.4,0.4h14.1
	l0.4-0.4v-74l-0.4-0.4 M513.1,304.6l-0.4,0.4v12.4l0.4,0.4h14.3V379l0.3,0.4h14.1l0.4-0.4v-61.3h14.2l0.4-0.4V305l-0.4-0.4
	 M563.2,305l21.5,47.9V379l0.4,0.4h14.3l0.4-0.4v-26.4l21.8-47.6v-0.4h-15.7l-1.1,1.9c-8,20.2-12.2,30.3-12.4,30.3
	c-8.5-21.1-13-31.8-13.4-32.2h-15.7 M143.9,370.2l8.4-2.2l8.3,2.2L152.3,262L143.9,370.2z"/>
<path class="st2" d="M46,301.8h0.7c9.8,0,16.3,5.2,19.5,15.7c0.4,2.1,0.7,3.9,0.7,5.4l-0.2,0.2H53.6c-0.1,0-0.4-1.3-0.9-3.9
	c-1.3-3.1-3.6-4.6-6.7-4.6h-1.1c-4.1,0-6.6,2.5-7.4,7.4v1.4c0,4.2,3.3,7.1,9.9,8.6c6.9,1.9,11.6,3.8,14.1,5.8
	c4.7,3.6,7.1,8.5,7.1,14.8v2.7c0,7.3-2.9,13.6-8.6,19.1c-4.4,3.3-9.5,4.9-15.3,4.9H44c-10.8,0-17.9-5.7-21.5-17.3
	c-0.6-2.7-0.9-5.1-0.9-7.1l0.2-0.1h13.4l0.4,0.4v0.7c0,5.8,2.5,9.2,7.4,10.4h2.4c4,0,6.7-1.9,8.1-5.7c0.4-1.1,0.7-2.5,0.7-4v-0.2
	c0-4.6-1.9-7.7-5.6-9.2c-8.3-2.5-13.2-4-14.4-4.8c-6.8-4.3-10.1-10.4-10.1-17.9c0-7.1,2.7-13.2,8.1-18.3
	C36,303.3,40.6,301.8,46,301.8 M72.6,304.6l-0.4,0.4v12.4l0.4,0.4h14.3V379l0.4,0.4h14.1l0.4-0.4v-61.3H116l0.4-0.4V305l-0.4-0.4
	 M200.8,305v73.9l0.4,0.4h14.1l0.4-0.4v-34.2h0.2c12.6,22.3,19.3,33.9,20,34.5h17.5l-19-28.9c5-1.1,8.6-2.8,10.9-4.9
	c5-4.8,7.4-10.3,7.4-16.2v-2.1c0-7.2-3-13-8.9-17.4c-3.9-3.4-12.4-5.1-25.7-5.1h-17L200.8,305z M215.6,316.9h3.2l7.4,0.1
	c7.7,1.3,11.5,4.9,11.5,10.9l-0.4,3.2c-1.9,6.6-7.4,9.9-16.2,9.9h-5.6V316.9 M309,305v53c0,1.8,0.3,3.6,0.9,5.5
	c3.5,10.6,11.2,15.9,23.2,15.9h1.1c3,0,6.4-0.6,10.1-1.8c9.3-3.8,13.9-11.6,13.9-23.5V305l-0.4-0.4h-14.3l-0.4,0.4v46.4L343,354
	c-1,7.1-3.9,10.7-8.6,10.7h-1.1l-1.8-0.1c-5.1-1.1-7.6-5.3-7.6-12.8V305l-0.4-0.4h-14.1 M364.6,305v74l0.4,0.4h14.1l0.4-0.4v-28.2
	h8.7c2.8,0,6-0.7,9.6-1.9c9.5-4.8,14.3-12,14.3-21.9v-0.7c0-4.2-1.4-8.3-4.2-12.4c-3.3-6.2-11.2-9.3-24-9.3H365L364.6,305z
	 M379.4,317.8h2.3l5.1,0.2c6.4,1,9.6,4.3,9.6,10l-0.4,2.8c-1.7,4.9-4.8,7.4-9.4,7.4h-7.2V317.8 M258.4,304.6L258,305v12.4l0.4,0.4
	h14.2V379l0.4,0.4h14.1l0.3-0.4v-61.3h14.3l0.4-0.4V305l-0.4-0.4"/>
</svg>
